<svg viewBox="0 0 16 20.6566" xmlns="http://www.w3.org/2000/svg" xmlns:xlink="http://www.w3.org/1999/xlink" width="16.000004" height="20.656616" fill="none" customFrame="#000000">
	<defs>
		<linearGradient id="paint_linear_normal" x1="8" x2="8.24681282" y1="0" y2="20.6565609" gradientUnits="userSpaceOnUse">
			<stop stop-color="rgb(255,255,255)" offset="0" stop-opacity="1" />
			<stop stop-color="rgb(115,184,255)" offset="0.506329119" stop-opacity="1" />
			<stop stop-color="rgb(35,142,253)" offset="0.987341762" stop-opacity="1" />
		</linearGradient>
		<linearGradient id="paint_linear_danger" x1="12" x2="12.3702192" y1="0" y2="14.4000015" gradientUnits="userSpaceOnUse">
			<stop stop-color="rgb(255,255,255)" offset="0" stop-opacity="1" />
			<stop stop-color="rgb(250,147,147)" offset="0.54938817" stop-opacity="1" />
			<stop stop-color="rgb(224,73,73)" offset="0.974683523" stop-opacity="1" />
		</linearGradient>
	</defs>
	<path id="矢量 191" d="M9.73285 19.2654C9.77762 19.2663 9.82189 19.2714 9.86566 19.2809C9.90943 19.2903 9.95189 19.3038 9.99306 19.3214C10.0342 19.339 10.0733 19.3604 10.1104 19.3856C10.1474 19.4108 10.1817 19.4392 10.2132 19.471C10.2448 19.5028 10.273 19.5373 10.2978 19.5745C10.3227 19.6117 10.3438 19.651 10.3611 19.6923C10.3784 19.7336 10.3916 19.7761 10.4007 19.82C10.4098 19.8638 10.4146 19.9081 10.4151 19.9529C10.4157 19.9977 10.4119 20.0421 10.4039 20.0861C10.3959 20.1302 10.3837 20.1731 10.3674 20.2148C10.3511 20.2564 10.3309 20.2962 10.3069 20.334C10.283 20.3718 10.2556 20.407 10.2248 20.4395C10.1941 20.472 10.1605 20.5013 10.124 20.5274C10.0876 20.5534 10.0491 20.5757 10.0083 20.5943C9.9676 20.6129 9.92547 20.6275 9.88193 20.6379C9.8384 20.6484 9.79427 20.6546 9.74954 20.6566L6.30704 20.6566C6.26228 20.6557 6.21801 20.6505 6.17424 20.6411C6.13047 20.6317 6.088 20.6182 6.04684 20.6006C6.00568 20.5829 5.96658 20.5616 5.92954 20.5364C5.89251 20.5112 5.85822 20.4828 5.82668 20.451C5.79514 20.4192 5.76693 20.3847 5.74205 20.3475C5.71717 20.3103 5.69608 20.271 5.67878 20.2297C5.66147 20.1884 5.64828 20.1458 5.63919 20.102C5.6301 20.0582 5.62529 20.0138 5.62475 19.9691C5.62421 19.9243 5.62796 19.8799 5.636 19.8358C5.64403 19.7918 5.6562 19.7489 5.67251 19.7072C5.68882 19.6655 5.70896 19.6258 5.73294 19.588C5.75692 19.5502 5.7843 19.515 5.81507 19.4825C5.84583 19.4499 5.87943 19.4207 5.91585 19.3946C5.95227 19.3686 5.99084 19.3462 6.03157 19.3276C6.0723 19.309 6.11443 19.2945 6.15796 19.284C6.2015 19.2736 6.24563 19.2674 6.29036 19.2654L9.73206 19.2654L9.73285 19.2654ZM10.6695 17.303C10.7143 17.3039 10.7586 17.3091 10.8024 17.3185C10.8461 17.3279 10.8886 17.3414 10.9298 17.359C10.9709 17.3767 11.01 17.3981 11.047 17.4232C11.0841 17.4484 11.1184 17.4769 11.1499 17.5086C11.1814 17.5404 11.2097 17.5749 11.2345 17.6121C11.2594 17.6494 11.2805 17.6886 11.2978 17.7299C11.3151 17.7712 11.3283 17.8138 11.3374 17.8576C11.3465 17.9015 11.3513 17.9458 11.3518 17.9905C11.3524 18.0353 11.3486 18.0797 11.3406 18.1238C11.3326 18.1678 11.3204 18.2107 11.3041 18.2524C11.2878 18.2941 11.2676 18.3338 11.2436 18.3716C11.2197 18.4094 11.1923 18.4446 11.1615 18.4771C11.1308 18.5097 11.0972 18.539 11.0607 18.565C11.0243 18.591 10.9857 18.6134 10.945 18.632C10.9043 18.6506 10.8622 18.6651 10.8186 18.6756C10.7751 18.686 10.731 18.6922 10.6862 18.6942L5.33698 18.6942C5.29221 18.6933 5.24794 18.6882 5.20417 18.6787C5.1604 18.6693 5.11794 18.6558 5.07677 18.6382C5.03561 18.6206 4.99651 18.5992 4.95948 18.574C4.92244 18.5489 4.88816 18.5204 4.85662 18.4886C4.82508 18.4568 4.79687 18.4223 4.77199 18.3851C4.74711 18.3479 4.72602 18.3086 4.70871 18.2673C4.69141 18.226 4.67821 18.1835 4.66912 18.1396C4.66004 18.0958 4.65522 18.0515 4.65469 18.0067C4.65415 17.9619 4.6579 17.9175 4.66593 17.8735C4.67397 17.8294 4.68614 17.7866 4.70245 17.7449C4.71875 17.7032 4.7389 17.6634 4.76288 17.6256C4.78686 17.5878 4.81423 17.5526 4.845 17.5201C4.87577 17.4876 4.90936 17.4583 4.94579 17.4322C4.9822 17.4062 5.02078 17.3839 5.06151 17.3653C5.10224 17.3467 5.14437 17.3321 5.1879 17.3217C5.23143 17.3112 5.27556 17.305 5.32029 17.303L10.6719 17.303L10.6695 17.303ZM8.00167 0C8.21505 5.64683e-05 8.42807 0.00863507 8.64076 0.0257358C8.85344 0.0428366 9.0651 0.0684048 9.27574 0.10244C9.48638 0.136476 9.69532 0.178871 9.90257 0.229624C10.1098 0.280377 10.3147 0.339327 10.5172 0.406473C10.7198 0.473619 10.9193 0.548747 11.1158 0.631857C11.3123 0.714968 11.5052 0.805794 11.6945 0.904337C11.8837 1.00288 12.0687 1.10882 12.2495 1.22217C12.4303 1.33552 12.6062 1.4559 12.7774 1.58332C12.9485 1.71075 13.1143 1.84481 13.2747 1.98549C13.4352 2.12618 13.5897 2.27305 13.7384 2.42611C13.887 2.57916 14.0293 2.73791 14.1653 2.90235C14.3013 3.06679 14.4305 3.23639 14.5529 3.41117C14.6752 3.58594 14.7905 3.76533 14.8985 3.94932C15.0065 4.13332 15.1071 4.32133 15.2001 4.51337C15.2931 4.70541 15.3783 4.90085 15.4556 5.0997C15.533 5.29856 15.6023 5.50018 15.6635 5.70458C15.7247 5.90897 15.7777 6.11549 15.8224 6.32412C15.8671 6.53276 15.9034 6.74285 15.9313 6.95438C15.9592 7.16592 15.9786 7.37824 15.9895 7.59133C16.0004 7.80442 16.0028 8.01761 15.9967 8.23089C15.9905 8.44418 15.9759 8.65687 15.9527 8.86898C15.9296 9.08109 15.898 9.29194 15.8579 9.50152C15.8179 9.7111 15.7695 9.91875 15.7129 10.1245C15.6563 10.3302 15.5915 10.5333 15.5186 10.7338C15.4457 10.9344 15.3649 11.1317 15.2762 11.3257C15.1875 11.5198 15.0912 11.71 14.9873 11.8964C14.8834 12.0827 14.7722 12.2647 14.6538 12.4421C14.5353 12.6196 14.41 12.792 14.2777 12.9595C14.1454 13.1269 14.0067 13.2888 13.8615 13.4451C13.7163 13.6015 13.5651 13.7518 13.4078 13.896C13.2506 14.0402 13.0879 14.178 12.9196 14.3092C12.7514 14.4404 12.5781 14.5647 12.3999 14.682L12.3483 14.9204L12.2077 15.5679C12.1913 15.6443 12.1687 15.7187 12.1398 15.7913C12.111 15.8638 12.0762 15.9334 12.0356 16.0001C11.995 16.0669 11.9491 16.1297 11.898 16.1887C11.8468 16.2477 11.7911 16.302 11.7307 16.3516C11.6704 16.4012 11.6064 16.4454 11.5386 16.4842C11.4709 16.523 11.4004 16.5559 11.3271 16.5829C11.2538 16.6098 11.1788 16.6305 11.102 16.6448C11.0253 16.6591 10.9478 16.667 10.8698 16.6683L5.12247 16.6683C5.04263 16.6683 4.96338 16.6614 4.88471 16.6478C4.80604 16.6342 4.72912 16.6139 4.65393 16.5871C4.57875 16.5602 4.50642 16.5271 4.43693 16.4878C4.36744 16.4485 4.30182 16.4035 4.24007 16.3529C4.17832 16.3023 4.12135 16.2468 4.06915 16.1864C4.01695 16.1259 3.97029 16.0615 3.92918 15.9931C3.88807 15.9246 3.8531 15.8532 3.82429 15.7787C3.79547 15.7043 3.77322 15.6279 3.75755 15.5496L3.69319 15.2318C3.66075 15.0371 3.61653 14.8451 3.56051 14.6558C3.3834 14.5377 3.21127 14.4126 3.04414 14.2807C2.87701 14.1488 2.7154 14.0105 2.55931 13.8657C2.40322 13.7209 2.25315 13.5701 2.1091 13.4133C1.96505 13.2565 1.82748 13.0943 1.69639 12.9265C1.56529 12.7587 1.44109 12.586 1.32379 12.4083C1.20649 12.2306 1.09645 12.0486 0.993682 11.8621C0.890914 11.6756 0.795742 11.4854 0.708164 11.2913C0.620587 11.0972 0.540883 10.9 0.469053 10.6996C0.397223 10.4991 0.333495 10.2962 0.27787 10.0906C0.222245 9.88513 0.174899 9.67773 0.135832 9.46843C0.0967658 9.25914 0.0661028 9.04862 0.0438435 8.83687C0.0215843 8.62513 0.00779945 8.41283 0.00248912 8.19999C-0.00282122 7.98714 0.000359816 7.77443 0.0120322 7.56184C0.0237046 7.34925 0.0438313 7.13746 0.0724121 6.92648C0.100993 6.71549 0.137937 6.50598 0.183245 6.29795C0.228552 6.08992 0.282079 5.88402 0.343824 5.68026C0.40557 5.4765 0.475338 5.27552 0.553129 5.07733C0.63092 4.87914 0.716486 4.68436 0.809828 4.493C0.903169 4.30164 1.00399 4.11431 1.11229 3.931C1.22058 3.74769 1.33601 3.56899 1.45858 3.39489C1.58114 3.2208 1.71045 3.05187 1.8465 2.8881C1.98255 2.72432 2.12492 2.56624 2.27359 2.41383C2.42226 2.26143 2.57677 2.11519 2.73712 1.97512C2.89747 1.83505 3.06315 1.70159 3.23415 1.57475C3.40515 1.44791 3.58094 1.32808 3.76151 1.21528C3.94208 1.10247 4.12685 0.997036 4.31584 0.89898C4.50483 0.800924 4.69742 0.710556 4.89362 0.627876C5.08982 0.545196 5.28901 0.470467 5.49118 0.40369C5.69334 0.336912 5.89785 0.278298 6.1047 0.227848C6.31155 0.177398 6.52008 0.135271 6.73029 0.10147C6.9405 0.0676675 7.15172 0.0422973 7.36396 0.0253588C7.57619 0.00842023 7.78876 -3.26932e-05 8.00167 0ZM6.54618 3.11596C4.19292 3.55531 3.03059 5.15461 2.89156 7.67788C2.88955 7.72316 2.89195 7.76821 2.89874 7.81302C2.90553 7.85783 2.9166 7.90156 2.93193 7.94421C2.94727 7.98686 2.96659 8.02762 2.98989 8.06649C3.01319 8.10537 3.04003 8.14162 3.07041 8.17525C3.10079 8.20888 3.13414 8.23925 3.17046 8.26637C3.20678 8.29348 3.24537 8.31683 3.28625 8.3364C3.32713 8.35598 3.36951 8.37142 3.4134 8.38271C3.4573 8.394 3.50187 8.40095 3.54712 8.40353C3.59236 8.40612 3.63744 8.4043 3.68233 8.39809C3.72722 8.39187 3.77109 8.38136 3.81393 8.36658C3.85678 8.35179 3.89778 8.33299 3.93695 8.31019C3.97612 8.2874 4.01272 8.26102 4.04673 8.23107C4.08075 8.20112 4.11155 8.16817 4.13913 8.1322C4.16671 8.09624 4.19055 8.05794 4.21064 8.01732C4.23074 7.9767 4.24672 7.93451 4.25857 7.89077C4.27043 7.84702 4.27794 7.80255 4.28111 7.75733C4.38757 5.82912 5.13677 4.79709 6.80201 4.48645C6.84765 4.47886 6.8921 4.46684 6.93535 4.45039C6.9786 4.43394 7.01979 4.41338 7.05894 4.38871C7.09809 4.36404 7.13442 4.33575 7.16792 4.30383C7.20143 4.27192 7.23145 4.23701 7.25799 4.19911C7.28453 4.16121 7.30707 4.12106 7.3256 4.07866C7.34414 4.03626 7.3583 3.99245 7.3681 3.94723C7.37789 3.902 7.38313 3.85626 7.3838 3.80999C7.38447 3.76372 7.38056 3.71784 7.37209 3.67236C7.36361 3.62687 7.35072 3.58266 7.33342 3.53975C7.31613 3.49683 7.29476 3.45604 7.26933 3.41738C7.2439 3.37873 7.2149 3.34296 7.18234 3.31009C7.14977 3.27722 7.11428 3.24789 7.07586 3.22209C7.03745 3.1963 6.99686 3.17455 6.95411 3.15685C6.91136 3.13915 6.86728 3.12585 6.82187 3.11694C6.77646 3.10804 6.73062 3.1037 6.68435 3.10394C6.63808 3.10417 6.59229 3.10898 6.54698 3.11835L6.54618 3.11596Z" fill="url(#paint_linear_normal)" fill-rule="nonzero" />
</svg>
