<svg viewBox="0 0 16 14.6996" xmlns="http://www.w3.org/2000/svg" xmlns:xlink="http://www.w3.org/1999/xlink" width="16.000000" height="14.699585" fill="none" customFrame="#000000">
	<defs>
		<linearGradient id="paint_linear_normal" x1="8" x2="8.24681282" y1="0" y2="20.6565609" gradientUnits="userSpaceOnUse">
			<stop stop-color="rgb(255,255,255)" offset="0" stop-opacity="1" />
			<stop stop-color="rgb(115,184,255)" offset="0.506329119" stop-opacity="1" />
			<stop stop-color="rgb(35,142,253)" offset="0.987341762" stop-opacity="1" />
		</linearGradient>
		<linearGradient id="paint_linear_danger" x1="12" x2="12.3702192" y1="0" y2="14.4000015" gradientUnits="userSpaceOnUse">
			<stop stop-color="rgb(255,255,255)" offset="0" stop-opacity="1" />
			<stop stop-color="rgb(250,147,147)" offset="0.54938817" stop-opacity="1" />
			<stop stop-color="rgb(224,73,73)" offset="0.974683523" stop-opacity="1" />
		</linearGradient>
	</defs>
	<path id="矢量 190" d="M15.8054 12.5459L9.81629 1.04859C9.00865 -0.34953 6.98953 -0.34953 6.18189 1.04859L0.194555 12.5459C-0.358233 13.5025 0.332752 14.6996 1.43833 14.6996L14.5634 14.6996C15.6672 14.6996 16.3582 13.5025 15.8054 12.5459ZM8.01973 12.4741C7.45617 12.4848 6.99851 12.0326 7.00928 11.478C7.01825 10.9557 7.45258 10.5285 7.98204 10.5178C8.5456 10.507 9.00326 10.9593 8.99249 11.5139C8.98352 12.0379 8.54918 12.4651 8.01973 12.4741ZM8.5115 9.79089L7.48668 9.79089C7.3108 9.79089 7.16183 9.66346 7.13312 9.49117L6.48341 6.11162C6.43495 5.81728 6.56776 5.51756 6.82801 5.37039C6.9321 5.31116 7.05415 5.27706 7.18157 5.27706L8.81481 5.27706C8.94403 5.27706 9.06428 5.31116 9.16838 5.37039C9.42683 5.51756 9.56143 5.81728 9.51297 6.11162L8.86327 9.49117C8.83814 9.66346 8.68738 9.79089 8.5115 9.79089L8.5115 9.79089Z" fill="url(#paint_linear_normal)" fill-rule="nonzero" />
</svg>
