<svg viewBox="0 0 24 14.4" xmlns="http://www.w3.org/2000/svg" xmlns:xlink="http://www.w3.org/1999/xlink" width="24.000000" height="14.400024" fill="none" customFrame="#000000">
	<defs>
		<linearGradient id="paint_linear_danger" x1="12" x2="12.3702192" y1="0" y2="14.4000015" gradientUnits="userSpaceOnUse">
			<stop stop-color="rgb(255,255,255)" offset="0" stop-opacity="1" />
			<stop stop-color="rgb(250,147,147)" offset="0.54938817" stop-opacity="1" />
			<stop stop-color="rgb(224,73,73)" offset="0.974683523" stop-opacity="1" />
		</linearGradient>
	</defs>
	<path id="矢量 180" d="M22.2004 14.4L1.8 14.4C0.806227 14.4 0 13.5942 0 12.6004L0 1.8012C0 0.805125 0.806226 0 1.8 0L22.2004 0C23.1938 0 24 0.805148 24 1.8012L24 12.6004C24 13.5942 23.1938 14.4 22.2004 14.4ZM7.2 2.4012C5.87419 2.4012 4.8 3.47346 4.8 4.8012C4.8 6.12427 5.87419 7.2012 7.2 7.2012C8.52534 7.2012 9.6 6.12427 9.6 4.8012C9.6 3.47346 8.52534 2.4012 7.2 2.4012ZM11.1171 9.15354C10.5179 8.7 8.78981 8.4 8.78981 8.4C8.78981 8.4 7.66751 9.75354 7.19093 9.75354C6.71477 9.75354 5.59446 8.4 5.59446 8.4C5.59446 8.4 3.86442 8.7 3.26442 9.15354C2.66442 9.60474 2.4 12 2.4 12L12 12C12 12 11.8238 9.68442 11.1171 9.15354ZM21.6 3.6012L14.4 3.6012L14.4 4.8012L21.6 4.8012L21.6 3.6012ZM21.6 6.0012L14.4 6.0012L14.4 7.2012L21.6 7.2012L21.6 6.0012ZM21.6 8.4L14.4 8.4L14.4 9.6012L21.6 9.6012L21.6 8.4ZM21.6 10.8012L14.4 10.8012L14.4 12L21.6 12L21.6 10.8012Z" fill="url(#paint_linear_danger)" fill-rule="nonzero" />
</svg>
