<svg viewBox="0 0 18.2857 16" xmlns="http://www.w3.org/2000/svg" xmlns:xlink="http://www.w3.org/1999/xlink" width="18.285713" height="16.000000" fill="none" customFrame="#000000">
	<defs>
		<linearGradient id="paint_linear_danger" x1="12" x2="12.3702192" y1="0" y2="14.4000015" gradientUnits="userSpaceOnUse">
			<stop stop-color="rgb(255,255,255)" offset="0" stop-opacity="1" />
			<stop stop-color="rgb(250,147,147)" offset="0.54938817" stop-opacity="1" />
			<stop stop-color="rgb(224,73,73)" offset="0.974683523" stop-opacity="1" />
		</linearGradient>
	</defs>
	<path id="矢量 177" d="M15.7714 3.26974e-07C17.16 3.26974e-07 18.2857 1.12571 18.2857 2.51429L18.2857 5.71429C18.2857 5.75931 18.2813 5.8039 18.2725 5.84806C18.2638 5.89222 18.2507 5.9351 18.2335 5.9767C18.2163 6.01829 18.1952 6.05781 18.1702 6.09525C18.1451 6.13268 18.1167 6.16732 18.0849 6.19916C18.053 6.231 18.0184 6.25942 17.981 6.28444C17.9435 6.30945 17.904 6.33057 17.8624 6.3478C17.8208 6.36503 17.7779 6.37804 17.7338 6.38682C17.6896 6.39561 17.645 6.4 17.6 6.4C17.5476 6.4 17.4953 6.40257 17.4432 6.4077C17.391 6.41284 17.3393 6.42052 17.2879 6.43074C17.2365 6.44097 17.1857 6.45368 17.1355 6.4689C17.0854 6.48411 17.0361 6.50174 16.9877 6.52179C16.9393 6.54185 16.892 6.56422 16.8458 6.58893C16.7995 6.61363 16.7547 6.64054 16.7111 6.66965C16.6675 6.69876 16.6255 6.72994 16.585 6.76318C16.5445 6.79643 16.5057 6.83157 16.4686 6.86863C16.4316 6.90568 16.3964 6.94446 16.3632 6.98497C16.3299 7.02548 16.2988 7.06752 16.2696 7.11109C16.2405 7.15466 16.2136 7.19955 16.1889 7.24576C16.1642 7.29198 16.1418 7.33929 16.1218 7.38771C16.1017 7.43612 16.0841 7.4854 16.0689 7.53554C16.0537 7.58569 16.041 7.63646 16.0307 7.68785C16.0205 7.73925 16.0128 7.79102 16.0077 7.84317C16.0026 7.89532 16 7.9476 16 8C16 8.0524 16.0026 8.10468 16.0077 8.15683C16.0128 8.20898 16.0205 8.26075 16.0307 8.31214C16.041 8.36354 16.0537 8.41431 16.0689 8.46445C16.0841 8.5146 16.1017 8.56388 16.1218 8.61229C16.1418 8.66071 16.1642 8.70802 16.1889 8.75423C16.2136 8.80045 16.2405 8.84534 16.2696 8.88891C16.2988 8.93248 16.3299 8.97452 16.3632 9.01503C16.3964 9.05554 16.4316 9.09432 16.4686 9.13137C16.5057 9.16842 16.5445 9.20357 16.585 9.23682C16.6255 9.27006 16.6675 9.30124 16.7111 9.33035C16.7547 9.35946 16.7995 9.38637 16.8458 9.41107C16.892 9.43577 16.9393 9.45815 16.9877 9.47821C17.0361 9.49826 17.0854 9.51589 17.1355 9.5311C17.1857 9.54632 17.2365 9.55903 17.2879 9.56926C17.3393 9.57948 17.391 9.58716 17.4432 9.59229C17.4953 9.59743 17.5476 9.6 17.6 9.6C17.645 9.6 17.6896 9.60439 17.7338 9.61318C17.7779 9.62196 17.8208 9.63497 17.8624 9.6522C17.904 9.66943 17.9435 9.69055 17.981 9.71556C18.0184 9.74058 18.053 9.769 18.0849 9.80084C18.1167 9.83268 18.1451 9.86732 18.1702 9.90475C18.1952 9.94219 18.2163 9.9817 18.2335 10.0233C18.2507 10.0649 18.2638 10.1078 18.2725 10.1519C18.2813 10.1961 18.2857 10.2407 18.2857 10.2857L18.2857 13.4857C18.2857 14.8743 17.16 16 15.7714 16L2.51429 16C1.12571 16 0 14.8743 0 13.4857L0 10.2857C-1.07347e-08 10.2407 0.00439192 10.1961 0.0131758 10.1519C0.0219596 10.1078 0.0349667 10.0649 0.0521969 10.0233C0.069427 9.98171 0.0905493 9.94219 0.115564 9.90475C0.140578 9.86732 0.169004 9.83268 0.200841 9.80084C0.232678 9.769 0.267315 9.74058 0.304752 9.71556C0.342188 9.69055 0.381705 9.66943 0.423303 9.6522C0.4649 9.63497 0.507779 9.62196 0.551938 9.61318C0.596098 9.60439 0.64069 9.6 0.685714 9.6C0.738116 9.6 0.790392 9.59743 0.842542 9.5923C0.894691 9.58716 0.946464 9.57948 0.997859 9.56926C1.04925 9.55903 1.10002 9.54632 1.15017 9.53111C1.20032 9.51589 1.24959 9.49826 1.29801 9.47821C1.34642 9.45815 1.39373 9.43578 1.43995 9.41107C1.48616 9.38637 1.53106 9.35946 1.57463 9.33035C1.6182 9.30124 1.66024 9.27006 1.70074 9.23682C1.74125 9.20357 1.78003 9.16842 1.81709 9.13137C1.85414 9.09432 1.88929 9.05554 1.92253 9.01503C1.95577 8.97452 1.98695 8.93248 2.01607 8.88891C2.04518 8.84534 2.07209 8.80045 2.09679 8.75424C2.12149 8.70802 2.14387 8.66071 2.16392 8.61229C2.18397 8.56388 2.20161 8.5146 2.21682 8.46446C2.23203 8.41431 2.24475 8.36354 2.25497 8.31215C2.26519 8.26075 2.27287 8.20898 2.27801 8.15683C2.28315 8.10468 2.28571 8.0524 2.28571 8C2.28571 7.9476 2.28315 7.89532 2.27801 7.84317C2.27287 7.79102 2.26519 7.73925 2.25497 7.68786C2.24475 7.63646 2.23203 7.58569 2.21682 7.53554C2.20161 7.4854 2.18397 7.43612 2.16392 7.38771C2.14387 7.33929 2.12149 7.29198 2.09679 7.24577C2.07209 7.19955 2.04518 7.15466 2.01607 7.11109C1.98695 7.06752 1.95577 7.02548 1.92253 6.98497C1.88929 6.94446 1.85414 6.90568 1.81709 6.86863C1.78003 6.83158 1.74125 6.79643 1.70074 6.76318C1.66024 6.72994 1.6182 6.69876 1.57463 6.66965C1.53106 6.64054 1.48616 6.61363 1.43995 6.58893C1.39373 6.56422 1.34642 6.54185 1.29801 6.52179C1.24959 6.50174 1.20032 6.48411 1.15017 6.4689C1.10002 6.45369 1.04925 6.44097 0.997859 6.43074C0.946464 6.42052 0.894691 6.41284 0.842542 6.40771C0.790392 6.40257 0.738116 6.4 0.685714 6.4C0.64069 6.4 0.596098 6.39561 0.551938 6.38683C0.507779 6.37804 0.4649 6.36503 0.423303 6.3478C0.381705 6.33057 0.342188 6.30945 0.304752 6.28444C0.267315 6.25942 0.232678 6.231 0.200841 6.19916C0.169004 6.16732 0.140578 6.13269 0.115564 6.09525C0.0905493 6.05781 0.0694271 6.01829 0.0521969 5.9767C0.0349667 5.9351 0.0219597 5.89222 0.0131758 5.84806C0.00439194 5.8039 0 5.75931 0 5.71429L0 2.51429C0 1.12571 1.12571 0 2.51429 0L15.7714 0L15.7714 3.26974e-07ZM11.8857 9.14286L6.4 9.14286C6.35498 9.14286 6.31038 9.14725 6.26622 9.15603C6.22206 9.16482 6.17919 9.17782 6.13759 9.19505C6.09599 9.21228 6.05647 9.23341 6.01904 9.25842C5.9816 9.28343 5.94696 9.31186 5.91513 9.3437C5.88329 9.37554 5.85486 9.41017 5.82985 9.44761C5.80483 9.48505 5.78371 9.52456 5.76648 9.56616C5.74925 9.60776 5.73624 9.65064 5.72746 9.69479C5.71868 9.73895 5.71429 9.78355 5.71429 9.82857C5.71429 9.8736 5.71868 9.91819 5.72746 9.96235C5.73624 10.0065 5.74925 10.0494 5.76648 10.091C5.78371 10.1326 5.80483 10.1721 5.82985 10.2095C5.85486 10.247 5.88329 10.2816 5.91513 10.3134C5.94696 10.3453 5.9816 10.3737 6.01904 10.3987C6.05647 10.4237 6.09599 10.4449 6.13759 10.4621C6.17918 10.4793 6.22206 10.4923 6.26622 10.5011C6.31038 10.5099 6.35498 10.5143 6.4 10.5143L11.8857 10.5143C11.9307 10.5143 11.9753 10.5099 12.0195 10.5011C12.0637 10.4923 12.1065 10.4793 12.1481 10.4621C12.1897 10.4449 12.2292 10.4237 12.2667 10.3987C12.3041 10.3737 12.3387 10.3453 12.3706 10.3134C12.4024 10.2816 12.4309 10.247 12.4559 10.2095C12.4809 10.1721 12.502 10.1326 12.5192 10.091C12.5365 10.0494 12.5495 10.0065 12.5583 9.96235C12.567 9.91819 12.5714 9.8736 12.5714 9.82857C12.5714 9.78355 12.567 9.73895 12.5583 9.69479C12.5495 9.65063 12.5365 9.60776 12.5192 9.56616C12.502 9.52456 12.4809 9.48505 12.4559 9.44761C12.4309 9.41017 12.4024 9.37554 12.3706 9.3437C12.3387 9.31186 12.3041 9.28343 12.2667 9.25842C12.2292 9.23341 12.1897 9.21228 12.1481 9.19505C12.1065 9.17782 12.0636 9.16482 12.0195 9.15603C11.9753 9.14725 11.9307 9.14286 11.8857 9.14286ZM11.8857 5.48571L6.4 5.48571C6.35498 5.48571 6.31038 5.49011 6.26622 5.49889C6.22206 5.50767 6.17919 5.52068 6.13759 5.53791C6.09599 5.55514 6.05647 5.57626 6.01904 5.60128C5.9816 5.62629 5.94696 5.65472 5.91513 5.68655C5.88329 5.71839 5.85486 5.75303 5.82985 5.79046C5.80483 5.8279 5.78371 5.86742 5.76648 5.90902C5.74925 5.95061 5.73624 5.99349 5.72746 6.03765C5.71868 6.08181 5.71429 6.1264 5.71429 6.17143C5.71429 6.21645 5.71868 6.26104 5.72746 6.3052C5.73624 6.34936 5.74925 6.39224 5.76648 6.43384C5.78371 6.47544 5.80483 6.51495 5.82985 6.55239C5.85486 6.58983 5.88329 6.62446 5.91513 6.6563C5.94696 6.68814 5.9816 6.71656 6.01904 6.74158C6.05647 6.76659 6.09599 6.78771 6.13759 6.80494C6.17918 6.82218 6.22206 6.83518 6.26622 6.84397C6.31038 6.85275 6.35498 6.85714 6.4 6.85714L11.8857 6.85714C11.9307 6.85714 11.9753 6.85275 12.0195 6.84397C12.0637 6.83518 12.1065 6.82218 12.1481 6.80494C12.1897 6.78771 12.2292 6.76659 12.2667 6.74158C12.3041 6.71656 12.3387 6.68814 12.3706 6.6563C12.4024 6.62446 12.4309 6.58983 12.4559 6.55239C12.4809 6.51495 12.502 6.47544 12.5192 6.43384C12.5365 6.39224 12.5495 6.34936 12.5583 6.3052C12.567 6.26104 12.5714 6.21645 12.5714 6.17143C12.5714 6.1264 12.567 6.08181 12.5583 6.03765C12.5495 5.99349 12.5365 5.95061 12.5192 5.90902C12.502 5.86742 12.4809 5.8279 12.4559 5.79046C12.4309 5.75303 12.4024 5.71839 12.3706 5.68655C12.3387 5.65472 12.3041 5.62629 12.2667 5.60128C12.2292 5.57626 12.1897 5.55514 12.1481 5.53791C12.1065 5.52068 12.0636 5.50767 12.0195 5.49889C11.9753 5.49011 11.9307 5.48571 11.8857 5.48571Z" fill="url(#paint_linear_danger)" fill-rule="nonzero" />
</svg>
