<svg viewBox="0 0 20 17.3333" xmlns="http://www.w3.org/2000/svg" xmlns:xlink="http://www.w3.org/1999/xlink" width="20.000000" height="17.333313" fill="none" customFrame="#000000">
	<defs>
		<linearGradient id="paint_linear_danger" x1="12" x2="12.3702192" y1="0" y2="14.4000015" gradientUnits="userSpaceOnUse">
			<stop stop-color="rgb(255,255,255)" offset="0" stop-opacity="1" />
			<stop stop-color="rgb(250,147,147)" offset="0.54938817" stop-opacity="1" />
			<stop stop-color="rgb(224,73,73)" offset="0.974683523" stop-opacity="1" />
		</linearGradient>
	</defs>
	<path id="矢量 210" d="M19.3333 16L18.6667 16L18.6667 6.66667C18.6667 5.2 17.4667 4 16 4L12 4L12 15.3333C12 15.7067 11.7067 16 11.3333 16C10.96 16 10.6667 15.7067 10.6667 15.3333L10.6667 2.66667C10.6667 1.2 9.46667 0 8 0L4 0C2.53333 0 1.33333 1.2 1.33333 2.66667L1.33333 16L0.666667 16C0.293333 16 0 16.2933 0 16.6667C0 17.04 0.293333 17.3333 0.666667 17.3333L19.3333 17.3333C19.7067 17.3333 20 17.04 20 16.6667C20 16.2933 19.7067 16 19.3333 16ZM7.33333 13.3333L4.66667 13.3333C4.29333 13.3333 4 13.04 4 12.6667C4 12.2933 4.29333 12 4.66667 12L7.33333 12C7.70667 12 8 12.2933 8 12.6667C8 13.04 7.70667 13.3333 7.33333 13.3333ZM7.33333 9.33333L4.66667 9.33333C4.29333 9.33333 4 9.04 4 8.66667C4 8.29333 4.29333 8 4.66667 8L7.33333 8C7.70667 8 8 8.29333 8 8.66667C8 9.04 7.70667 9.33333 7.33333 9.33333ZM7.33333 5.33333L4.66667 5.33333C4.29333 5.33333 4 5.04 4 4.66667C4 4.29333 4.29333 4 4.66667 4L7.33333 4C7.70667 4 8 4.29333 8 4.66667C8 5.04 7.70667 5.33333 7.33333 5.33333ZM16.6667 13.3333L14 13.3333C13.6267 13.3333 13.3333 13.04 13.3333 12.6667C13.3333 12.2933 13.6267 12 14 12L16.6667 12C17.04 12 17.3333 12.2933 17.3333 12.6667C17.3333 13.04 17.04 13.3333 16.6667 13.3333ZM16.6667 9.33333L14 9.33333C13.6267 9.33333 13.3333 9.04 13.3333 8.66667C13.3333 8.29333 13.6267 8 14 8L16.6667 8C17.04 8 17.3333 8.29333 17.3333 8.66667C17.3333 9.04 17.04 9.33333 16.6667 9.33333Z" fill="url(#paint_linear_danger)" fill-rule="nonzero" />
</svg>
