<svg viewBox="0 0 182 237.233" xmlns="http://www.w3.org/2000/svg" xmlns:xlink="http://www.w3.org/1999/xlink" width="182.000000" height="237.232971" fill="none" customFrame="#000000">
	<g id="组合 902">
		<g id="组合 750">
			<path id="矢量 167" d="M0 0L57 0C90.1371 0 117 26.8629 117 60L117 110.803L171.749 165.552C172.585 166.389 173.376 167.263 174.12 168.175C174.828 169.043 175.495 169.946 176.12 170.883C176.746 171.823 177.325 172.788 177.855 173.779C178.399 174.795 178.893 175.837 179.336 176.907C179.779 177.977 180.167 179.063 180.501 180.167C180.827 181.242 181.1 182.333 181.321 183.441C181.542 184.545 181.709 185.655 181.822 186.771C181.941 187.941 182 189.118 182 190.301L182 224.749C177.725 228.011 174.27 232.294 172 237.233L172 190.301C172 189.448 171.957 188.599 171.87 187.755C171.79 186.967 171.671 186.182 171.515 185.401C171.358 184.615 171.164 183.84 170.934 183.076C170.694 182.283 170.415 181.502 170.097 180.734C169.779 179.966 169.424 179.217 169.034 178.489C168.656 177.784 168.245 177.099 167.8 176.431C167.358 175.768 166.886 175.129 166.386 174.514C165.85 173.856 165.281 173.226 164.678 172.623L109.054 117L60 117C26.8629 117 0 90.1371 0 57L0 0Z" fill="rgb(62,152,255)" fill-rule="evenodd" />
		</g>
		<path id="矢量 185" d="M43.0637 0L0.000177383 0C0.000177383 23.7833 19.2803 43.0636 43.0637 43.0636L43.0637 0Z" fill="rgb(41,146,253)" fill-rule="evenodd" transform="matrix(-1,0,0,1,43.0635,0)" />
	</g>
</svg>
